# VPXTOOL table OBJ file
# VPXTOOL OBJ file
# numVerts: 16 numFaces: 24
o Korpus
v 952.1849975585938 370 -0.000012999999853491317
v 952.1849975585938 0 -0
v 0 0 -0
v 0 370 -0.000012999999853491317
v 952.1849975585938 166 2163.14990234375
v 0 166 2163.14990234375
v 0 -0.0003330000035930425 2163.14990234375
v 952.1849975585938 -0.0003330000035930425 2163.14990234375
v 0 166 2163.14990234375
v 0 370 -0.000012999999853491317
v 0 0 -0
v 0 -0.0003330000035930425 2163.14990234375
v 952.1849975585938 370 -0.000012999999853491317
v 952.1849975585938 -0.0003330000035930425 2163.14990234375
v 952.1849975585938 0 -0
v 952.1849975585938 166 2163.14990234375
vt 0.9918299913406372 0.006630003452301025
vt 0.9918299913406372 0.1754099726676941
vt 0.45671001076698303 0.1754099726676941
vt 0.45671001076698303 0.006630003452301025
vt 0.9918299913406372 0.2643899917602539
vt 0.45671001076698303 0.2643899917602539
vt 0.45671001076698303 0.18866002559661865
vt 0.9918299913406372 0.18866002559661865
vt 0.10146000236272812 0.006630003452301025
vt 0.2161100059747696 0.993369996547699
vt 0.008170000277459621 0.993369996547699
vt 0.008170000277459621 0.006630003452301025
vt 0.23243999481201172 0.993369996547699
vt 0.4403800070285797 0.006630003452301025
vt 0.4403800070285797 0.993369996547699
vt 0.3470799922943115 0.006630003452301025
vn 0 0.00000000000000006123230292458899 1
vn 0 0.00000000000000006123230292458899 1
vn 0 0.00000000000000006123230292458899 1
vn 0 0.00000000000000006123230292458899 1
vn 0 -0.00000000000000006123230292458899 -1
vn 0 -0.00000000000000006123230292458899 -1
vn 0 -0.00000000000000006123230292458899 -1
vn 0 -0.00000000000000006123230292458899 -1
vn 1 0 -0
vn 1 0 -0
vn 1 0 -0
vn 1 0 -0
vn -1 0 -0
vn -1 0 -0
vn -1 0 -0
vn -1 0 -0
f 3/3/3 2/2/2 1/1/1
f 4/4/4 3/3/3 1/1/1
f 7/7/7 6/6/6 5/5/5
f 8/8/8 7/7/7 5/5/5
f 11/11/11 10/10/10 9/9/9
f 12/12/12 11/11/11 9/9/9
f 15/15/15 14/14/14 13/13/13
f 14/14/14 16/16/16 13/13/13
