# VPXTOOL table OBJ file
# VPXTOOL OBJ file
# numVerts: 131 numFaces: 396
o Peg4
v 8.550000190734863 0.0027388399466872215 -0.00003099999958067201
v 8.550000190734863 26.59469985961914 -0.00003099999958067201
v 7.404489994049072 26.59469985961914 -4.273709774017334
v 7.404489994049072 0.0027388399466872215 -4.273709774017334
v 4.275010108947754 26.59469985961914 -7.402309894561768
v 4.275010108947754 0.0027388399466872215 -7.402309894561768
v 0.000014999999621068127 26.59469985961914 -8.547459602355957
v 0.000014999999621068127 0.0027388399466872215 -8.547459602355957
v -4.275010108947754 26.59469985961914 -7.402309894561768
v -4.275010108947754 0.0027388399466872215 -7.402309894561768
v -7.404590129852295 26.59469985961914 -4.273709774017334
v -7.404590129852295 0.0027388399466872215 -4.273709774017334
v -8.550000190734863 26.59469985961914 -0.00003099999958067201
v -8.550000190734863 0.0027388399466872215 -0.00003099999958067201
v -7.404590129852295 26.59469985961914 4.273769855499268
v -7.404590129852295 0.0027388399466872215 4.273769855499268
v -4.275010108947754 26.59469985961914 7.402249813079834
v -4.275010108947754 0.0027388399466872215 7.402249813079834
v 0.000014999999621068127 26.59469985961914 8.547450065612793
v 0.000014999999621068127 0.0027388399466872215 8.547450065612793
v 4.275010108947754 26.59469985961914 7.402249813079834
v 4.275010108947754 0.0027388399466872215 7.402249813079834
v 7.404489994049072 26.59469985961914 4.273769855499268
v 7.404489994049072 0.0027388399466872215 4.273769855499268
v 8.550000190734863 26.59469985961914 -0.00003099999958067201
v 8.550000190734863 0.0027388399466872215 -0.00003099999958067201
v 0.000014999999621068127 29.444700241088867 -5.641329765319824
v 0.000014999999621068127 26.59469985961914 -8.547459602355957
v 4.275010108947754 26.59469985961914 -7.402309894561768
v -4.275010108947754 26.59469985961914 -7.402309894561768
v 7.404489994049072 26.59469985961914 -4.273709774017334
v 4.887010097503662 29.444700241088867 -2.820650100708008
v -4.887010097503662 29.444700241088867 -2.820650100708008
v -7.404590129852295 26.59469985961914 -4.273709774017334
v -8.550000190734863 26.59469985961914 -0.00003099999958067201
v 0.000014999999621068127 33.24470138549805 -5.641329765319824
v 4.887010097503662 33.24470138549805 -2.820650100708008
v 7.404489994049072 36.09469985961914 -4.273709774017334
v 4.275010108947754 36.09469985961914 -7.402309894561768
v 0.000014999999621068127 36.09469985961914 -8.547459602355957
v -4.275010108947754 36.09469985961914 -7.402309894561768
v -4.887010097503662 33.24470138549805 -2.820650100708008
v -7.404590129852295 36.09469985961914 -4.273709774017334
v -8.550000190734863 36.09469985961914 -0.00003099999958067201
v -4.887010097503662 33.24470138549805 2.820650100708008
v -7.404590129852295 36.09469985961914 4.273769855499268
v -4.275010108947754 36.09469985961914 7.402249813079834
v -4.887010097503662 29.444700241088867 2.820650100708008
v -7.404590129852295 26.59469985961914 4.273769855499268
v -4.275010108947754 26.59469985961914 7.402249813079834
v 0.000014999999621068127 33.24470138549805 5.641389846801758
v 0.000014999999621068127 36.09469985961914 8.547450065612793
v 4.275010108947754 36.09469985961914 7.402249813079834
v 0.000014999999621068127 29.444700241088867 5.641389846801758
v 0.000014999999621068127 26.59469985961914 8.547450065612793
v 4.275010108947754 26.59469985961914 7.402249813079834
v 4.887010097503662 33.24470138549805 2.820650100708008
v 7.404489994049072 36.09469985961914 4.273769855499268
v 8.550000190734863 36.09469985961914 -0.00003099999958067201
v 4.887010097503662 29.444700241088867 2.820650100708008
v 7.404489994049072 26.59469985961914 4.273769855499268
v 4.887010097503662 33.24470138549805 -2.820650100708008
v 7.404489994049072 36.09469985961914 -4.273709774017334
v 8.550000190734863 26.59469985961914 -0.00003099999958067201
v 4.887010097503662 29.444700241088867 -2.820650100708008
v 7.404489994049072 26.59469985961914 -4.273709774017334
v 0.000014999999621068127 55.09469985961914 -8.547459602355957
v 0.000014999999621068127 36.09469985961914 -8.547459602355957
v 4.275010108947754 36.09469985961914 -7.402309894561768
v 4.275010108947754 55.09469985961914 -7.402309894561768
v -4.275010108947754 55.09469985961914 -7.402309894561768
v 7.404489994049072 36.09469985961914 -4.273709774017334
v -4.275010108947754 36.09469985961914 -7.402309894561768
v 7.404489994049072 55.09469985961914 -4.273709774017334
v -7.404590129852295 55.09469985961914 -4.273709774017334
v 8.550000190734863 36.09469985961914 -0.00003099999958067201
v 8.550000190734863 55.09469985961914 -0.00003099999958067201
v -7.404590129852295 36.09469985961914 -4.273709774017334
v -8.550000190734863 55.09469985961914 -0.00003099999958067201
v -8.550000190734863 36.09469985961914 -0.00003099999958067201
v -7.404590129852295 55.09469985961914 4.273769855499268
v -7.404590129852295 36.09469985961914 4.273769855499268
v -4.275010108947754 55.09469985961914 7.402249813079834
v -4.275010108947754 36.09469985961914 7.402249813079834
v 0.000014999999621068127 55.09469985961914 8.547450065612793
v 0.000014999999621068127 36.09469985961914 8.547450065612793
v 4.275010108947754 55.09469985961914 7.402249813079834
v 4.275010108947754 36.09469985961914 7.402249813079834
v 7.404489994049072 55.09469985961914 4.273769855499268
v 7.404489994049072 36.09469985961914 4.273769855499268
v 8.550000190734863 55.09469985961914 -0.00003099999958067201
v 8.550000190734863 36.09469985961914 -0.00003099999958067201
v 0.000014999999621068127 56.99470138549805 -7.265349864959717
v 4.275010108947754 55.09469985961914 -7.402309894561768
v 3.6337099075317383 56.99470138549805 -6.291959762573242
v 0.000014999999621068127 55.09469985961914 -8.547459602355957
v 7.404489994049072 55.09469985961914 -4.273709774017334
v -3.6338000297546387 56.99470138549805 -6.291959762573242
v 6.29380989074707 56.99470138549805 -3.632659912109375
v -4.275010108947754 55.09469985961914 -7.402309894561768
v 8.550000190734863 55.09469985961914 -0.00003099999958067201
v 7.267499923706055 56.99470138549805 -0.00003099999958067201
v -6.293900012969971 56.99470138549805 -3.632659912109375
v -7.404590129852295 55.09469985961914 -4.273709774017334
v -7.267499923706055 56.99470138549805 -0.00003099999958067201
v -8.550000190734863 55.09469985961914 -0.00003099999958067201
v -6.293900012969971 56.99470138549805 3.632659912109375
v -7.404590129852295 55.09469985961914 4.273769855499268
v -3.6338000297546387 56.99470138549805 6.291959762573242
v -4.275010108947754 55.09469985961914 7.402249813079834
v 0.000014999999621068127 56.99470138549805 7.265349864959717
v 0.000014999999621068127 55.09469985961914 8.547450065612793
v 3.6337099075317383 56.99470138549805 6.291959762573242
v 4.275010108947754 55.09469985961914 7.402249813079834
v 6.29380989074707 56.99470138549805 3.632659912109375
v 7.404489994049072 55.09469985961914 4.273769855499268
v 7.267499923706055 56.99470138549805 -0.00003099999958067201
v 8.550000190734863 55.09469985961914 -0.00003099999958067201
v 0.000014999999621068127 56.99470138549805 -0.00003099999958067201
v 0.000014999999621068127 56.99470138549805 -7.265349864959717
v 3.6337099075317383 56.99470138549805 -6.291959762573242
v -3.6338000297546387 56.99470138549805 -6.291959762573242
v 6.29380989074707 56.99470138549805 -3.632659912109375
v -6.293900012969971 56.99470138549805 -3.632659912109375
v 7.267499923706055 56.99470138549805 -0.00003099999958067201
v -7.267499923706055 56.99470138549805 -0.00003099999958067201
v 6.29380989074707 56.99470138549805 3.632659912109375
v -6.293900012969971 56.99470138549805 3.632659912109375
v 3.6337099075317383 56.99470138549805 6.291959762573242
v -3.6338000297546387 56.99470138549805 6.291959762573242
v 0.000014999999621068127 56.99470138549805 7.265349864959717
vt 0 0
vt 0 0.4665899872779846
vt 0.08399999886751175 0.4665899872779846
vt 0.08399999886751175 0
vt 0.16791999340057373 0.4665899872779846
vt 0.16791999340057373 0
vt 0.2567499876022339 0.4665899872779846
vt 0.2567499876022339 0
vt 0.33858001232147217 0.4665899872779846
vt 0.33858001232147217 0
vt 0.42250001430511475 0.4665899872779846
vt 0.42250001430511475 0
vt 0.5044999718666077 0.4665899872779846
vt 0.5044999718666077 0
vt 0.5885000228881836 0.4665899872779846
vt 0.5885000228881836 0
vt 0.6724200248718262 0.4665899872779846
vt 0.6724200248718262 0
vt 0.7542499899864197 0.4665899872779846
vt 0.7542499899864197 0
vt 0.836080014705658 0.4665899872779846
vt 0.836080014705658 0
vt 0.9160000085830688 0.4665899872779846
vt 0.9160000085830688 0
vt 0.9980000257492065 0.4665899872779846
vt 0.9980000257492065 0
vt 0.16775000095367432 0.5166000127792358
vt 0.16775000095367432 0.4665899872779846
vt 0.08392000198364258 0.4665899872779846
vt 0.2565799951553345 0.4665899872779846
vt 0 0.4665899872779846
vt 0 0.5166000127792358
vt 0.3384999930858612 0.5166000127792358
vt 0.3384999930858612 0.4665899872779846
vt 0.42250001430511475 0.4665899872779846
vt 0.16775000095367432 0.5832799673080444
vt 0 0.5832799673080444
vt 0 0.6332800388336182
vt 0.08392000198364258 0.6332800388336182
vt 0.16775000095367432 0.6332800388336182
vt 0.2565799951553345 0.6332800388336182
vt 0.3384999930858612 0.5832799673080444
vt 0.3384999930858612 0.6332800388336182
vt 0.42250001430511475 0.6332800388336182
vt 0.5044999718666077 0.5832799673080444
vt 0.5044999718666077 0.6332800388336182
vt 0.5884199738502502 0.6332800388336182
vt 0.5044999718666077 0.5166000127792358
vt 0.5044999718666077 0.4665899872779846
vt 0.5884199738502502 0.4665899872779846
vt 0.672249972820282 0.5832799673080444
vt 0.672249972820282 0.6332800388336182
vt 0.7540799975395203 0.6332800388336182
vt 0.672249972820282 0.5166000127792358
vt 0.672249972820282 0.4665899872779846
vt 0.7540799975395203 0.4665899872779846
vt 0.8360000252723694 0.5832799673080444
vt 0.8360000252723694 0.6332800388336182
vt 0.9160000085830688 0.6332800388336182
vt 0.8360000252723694 0.5166000127792358
vt 0.8360000252723694 0.4665899872779846
vt 0.9983000159263611 0.5832799673080444
vt 0.9983000159263611 0.6332800388336182
vt 0.9160000085830688 0.4665899872779846
vt 0.9983000159263611 0.5166000127792358
vt 0.9983000159263611 0.4665899872779846
vt 0.2567499876022339 0.9666600227355957
vt 0.2567499876022339 0.6332800388336182
vt 0.16791999340057373 0.6332800388336182
vt 0.16791999340057373 0.9666600227355957
vt 0.33858001232147217 0.9666600227355957
vt 0.08399999886751175 0.6332800388336182
vt 0.33858001232147217 0.6332800388336182
vt 0.08399999886751175 0.9666600227355957
vt 0.42250001430511475 0.9666600227355957
vt 0 0.6332800388336182
vt 0 0.9666600227355957
vt 0.42250001430511475 0.6332800388336182
vt 0.5044999718666077 0.9666600227355957
vt 0.5044999718666077 0.6332800388336182
vt 0.5885000228881836 0.9666600227355957
vt 0.5885000228881836 0.6332800388336182
vt 0.6724200248718262 0.9666600227355957
vt 0.6724200248718262 0.6332800388336182
vt 0.7542499899864197 0.9666600227355957
vt 0.7542499899864197 0.6332800388336182
vt 0.836080014705658 0.9666600227355957
vt 0.836080014705658 0.6332800388336182
vt 0.9160000085830688 0.9666600227355957
vt 0.9160000085830688 0.6332800388336182
vt 0.9980000257492065 0.9666600227355957
vt 0.9980000257492065 0.6332800388336182
vt 0.2567499876022339 1
vt 0.16791999340057373 0.9666600227355957
vt 0.16791999340057373 1
vt 0.2567499876022339 0.9666600227355957
vt 0.08399999886751175 0.9666600227355957
vt 0.33858001232147217 1
vt 0.08399999886751175 1
vt 0.33858001232147217 0.9666600227355957
vt 0 0.9666600227355957
vt 0 1
vt 0.42250001430511475 1
vt 0.42250001430511475 0.9666600227355957
vt 0.5044999718666077 1
vt 0.5044999718666077 0.9666600227355957
vt 0.5885000228881836 1
vt 0.5885000228881836 0.9666600227355957
vt 0.6724200248718262 1
vt 0.6724200248718262 0.9666600227355957
vt 0.7542499899864197 1
vt 0.7542499899864197 0.9666600227355957
vt 0.836080014705658 1
vt 0.836080014705658 0.9666600227355957
vt 0.9160000085830688 1
vt 0.9160000085830688 0.9666600227355957
vt 0.9980000257492065 1
vt 0.9980000257492065 0.9666600227355957
vt 0.16885000467300415 0.795490026473999
vt 0.29385000467300415 0.795490026473999
vt 0.2771100103855133 0.732990026473999
vt 0.2771100103855133 0.857990026473999
vt 0.23135000467300415 0.6872299909591675
vt 0.23135000467300415 0.9037399888038635
vt 0.16885000467300415 0.670490026473999
vt 0.16885000467300415 0.920490026473999
vt 0.10634999722242355 0.6872299909591675
vt 0.10634999722242355 0.9037399888038635
vt 0.060600001364946365 0.732990026473999
vt 0.060600001364946365 0.857990026473999
vt 0.04385000094771385 0.795490026473999
vn 1 0 -0
vn 1 0 -0
vn 0.8659840226173401 -0.000000000000000030620499123594074 -0.5000709891319275
vn 0.8659840226173401 -0.000000000000000030620499123594074 -0.5000709891319275
vn 0.4999139904975891 -0.000000000000000053031799767860784 -0.8660749793052673
vn 0.4999139904975891 -0.000000000000000053031799767860784 -0.8660749793052673
vn 0 -0.00000000000000006123230292458899 -1
vn 0 -0.00000000000000006123230292458899 -1
vn -0.4999139904975891 -0.000000000000000053031799767860784 -0.8660749793052673
vn -0.4999139904975891 -0.000000000000000053031799767860784 -0.8660749793052673
vn -0.8659840226173401 -0.000000000000000030620499123594074 -0.5000709891319275
vn -0.8659840226173401 -0.000000000000000030620499123594074 -0.5000709891319275
vn -1 0 -0
vn -1 0 -0
vn -0.8659840226173401 0.000000000000000030620499123594074 0.5000709891319275
vn -0.8659840226173401 0.000000000000000030620499123594074 0.5000709891319275
vn -0.4999139904975891 0.000000000000000053031799767860784 0.8660749793052673
vn -0.4999139904975891 0.000000000000000053031799767860784 0.8660749793052673
vn 0 0.00000000000000006123230292458899 1
vn 0 0.00000000000000006123230292458899 1
vn 0.4999139904975891 0.000000000000000053031799767860784 0.8660749793052673
vn 0.4999139904975891 0.000000000000000053031799767860784 0.8660749793052673
vn 0.8659840226173401 0.000000000000000030620499123594074 0.5000709891319275
vn 0.8659840226173401 0.000000000000000030620499123594074 0.5000709891319275
vn 1 0 -0
vn 1 0 -0
vn 0 0.4976930022239685 -0.8673530220985413
vn 0 0.7139790058135986 -0.7001670002937317
vn 0.33326399326324463 0.7453740239143372 -0.5773670077323914
vn -0.33326399326324463 0.7453740239143372 -0.5773670077323914
vn 0.6062729954719543 0.7140589952468872 -0.35007598996162415
vn 0.7510499954223633 0.4978249967098236 -0.43369799852371216
vn -0.7510499954223633 0.4978249967098236 -0.43369799852371216
vn -0.6062729954719543 0.7140589952468872 -0.35007598996162415
vn -0.6665840148925781 0.7454299926757813 -0.000000000000000045644398609659954
vn 0 -0.4976930022239685 -0.8673530220985413
vn 0.7510499954223633 -0.4978249967098236 -0.43369799852371216
vn 0.6062729954719543 -0.7140589952468872 -0.35007598996162415
vn 0.33326399326324463 -0.7453740239143372 -0.5773670077323914
vn 0 -0.7139790058135986 -0.7001670002937317
vn -0.33326399326324463 -0.7453740239143372 -0.5773670077323914
vn -0.7510499954223633 -0.4978249967098236 -0.43369799852371216
vn -0.6062729954719543 -0.7140589952468872 -0.35007598996162415
vn -0.6665840148925781 -0.7454299926757813 0.000000000000000045644398609659954
vn -0.7510499954223633 -0.4978249967098236 0.43369799852371216
vn -0.6062729954719543 -0.7140589952468872 0.35007598996162415
vn -0.33326399326324463 -0.7453740239143372 0.5773670077323914
vn -0.7510499954223633 0.4978249967098236 0.43369799852371216
vn -0.6062729954719543 0.7140589952468872 0.35007598996162415
vn -0.33326399326324463 0.7453740239143372 0.5773670077323914
vn 0 -0.4976930022239685 0.8673530220985413
vn 0 -0.7139790058135986 0.7001670002937317
vn 0.33326399326324463 -0.7453740239143372 0.5773670077323914
vn 0 0.4976930022239685 0.8673530220985413
vn 0 0.7139790058135986 0.7001670002937317
vn 0.33326399326324463 0.7453740239143372 0.5773670077323914
vn 0.7510499954223633 -0.4978249967098236 0.43369799852371216
vn 0.6062729954719543 -0.7140589952468872 0.35007598996162415
vn 0.6665679812431335 -0.7454439997673035 0.00000000000000004564529858216641
vn 0.7510499954223633 0.4978249967098236 0.43369799852371216
vn 0.6062729954719543 0.7140589952468872 0.35007598996162415
vn 0.7510499954223633 -0.4978249967098236 -0.43369799852371216
vn 0.6062729954719543 -0.7140589952468872 -0.35007598996162415
vn 0.6665679812431335 0.7454439997673035 -0.00000000000000004564529858216641
vn 0.7510499954223633 0.4978249967098236 -0.43369799852371216
vn 0.6062729954719543 0.7140589952468872 -0.35007598996162415
vn 0 -0.00000000000000006123230292458899 -1
vn 0 -0.00000000000000006123230292458899 -1
vn 0.4999139904975891 -0.000000000000000053031799767860784 -0.8660749793052673
vn 0.4999139904975891 -0.000000000000000053031799767860784 -0.8660749793052673
vn -0.4999139904975891 -0.000000000000000053031799767860784 -0.8660749793052673
vn 0.8659840226173401 -0.000000000000000030620499123594074 -0.5000709891319275
vn -0.4999139904975891 -0.000000000000000053031799767860784 -0.8660749793052673
vn 0.8659840226173401 -0.000000000000000030620499123594074 -0.5000709891319275
vn -0.8659840226173401 -0.000000000000000030620499123594074 -0.5000709891319275
vn 1 0 -0
vn 1 0 -0
vn -0.8659840226173401 -0.000000000000000030620499123594074 -0.5000709891319275
vn -1 0 -0
vn -1 0 -0
vn -0.8659840226173401 0.000000000000000030620499123594074 0.5000709891319275
vn -0.8659840226173401 0.000000000000000030620499123594074 0.5000709891319275
vn -0.4999139904975891 0.000000000000000053031799767860784 0.8660749793052673
vn -0.4999139904975891 0.000000000000000053031799767860784 0.8660749793052673
vn 0 0.00000000000000006123230292458899 1
vn 0 0.00000000000000006123230292458899 1
vn 0.4999139904975891 0.000000000000000053031799767860784 0.8660749793052673
vn 0.4999139904975891 0.000000000000000053031799767860784 0.8660749793052673
vn 0.8659840226173401 0.000000000000000030620499123594074 0.5000709891319275
vn 0.8659840226173401 0.000000000000000030620499123594074 0.5000709891319275
vn 1 0 -0
vn 1 0 -0
vn 0 0.5593569874763489 -0.8289269804954529
vn 0.41438499093055725 0.5593889951705933 -0.7178919911384583
vn 0.4143590033054352 0.5593960285186768 -0.7179020047187805
vn 0 0.5593569874763489 -0.8289269804954529
vn 0.7177940011024475 0.5594469904899597 -0.4144760072231293
vn -0.4143590033054352 0.5593960285186768 -0.7179020047187805
vn 0.7177600264549255 0.5594450235366821 -0.4145370125770569
vn -0.41438499093055725 0.5593889951705933 -0.7178919911384583
vn 0.8288490176200867 0.5594720244407654 -0.0000000000000000342578008741694
vn 0.8288490176200867 0.5594720244407654 -0.0000000000000000342578008741694
vn -0.717769980430603 0.559453010559082 -0.4145109951496124
vn -0.7177940011024475 0.5594469904899597 -0.4144760072231293
vn -0.8288490176200867 0.5594720244407654 -0.0000000000000000342578008741694
vn -0.8288490176200867 0.5594720244407654 -0.0000000000000000342578008741694
vn -0.717769980430603 0.559453010559082 0.4145109951496124
vn -0.7177940011024475 0.5594469904899597 0.4144760072231293
vn -0.4143590033054352 0.5593960285186768 0.7179020047187805
vn -0.41438499093055725 0.5593889951705933 0.7178919911384583
vn 0 0.5593569874763489 0.8289269804954529
vn 0 0.5593569874763489 0.8289269804954529
vn 0.4143590033054352 0.5593960285186768 0.7179020047187805
vn 0.41438499093055725 0.5593889951705933 0.7178919911384583
vn 0.7177600264549255 0.5594450235366821 0.4145370125770569
vn 0.7177940011024475 0.5594469904899597 0.4144760072231293
vn 0.8288490176200867 0.5594720244407654 -0.0000000000000000342578008741694
vn 0.8288490176200867 0.5594720244407654 -0.0000000000000000342578008741694
vn 0 1 -0.00000000000000006123230292458899
vn 0 1 -0.00000000000000006123230292458899
vn 0 1 -0.00000000000000006123230292458899
vn 0 1 -0.00000000000000006123230292458899
vn 0 1 -0.00000000000000006123230292458899
vn 0 1 -0.00000000000000006123230292458899
vn 0 1 -0.00000000000000006123230292458899
vn 0 1 -0.00000000000000006123230292458899
vn 0 1 -0.00000000000000006123230292458899
vn 0 1 -0.00000000000000006123230292458899
vn 0 1 -0.00000000000000006123230292458899
vn 0 1 -0.00000000000000006123230292458899
vn 0 1 -0.00000000000000006123230292458899
f 3/3/3 2/2/2 1/1/1
f 4/4/4 3/3/3 1/1/1
f 4/4/4 5/5/5 3/3/3
f 6/6/6 5/5/5 4/4/4
f 7/7/7 5/5/5 6/6/6
f 8/8/8 7/7/7 6/6/6
f 8/8/8 9/9/9 7/7/7
f 10/10/10 9/9/9 8/8/8
f 11/11/11 9/9/9 10/10/10
f 12/12/12 11/11/11 10/10/10
f 12/12/12 13/13/13 11/11/11
f 14/14/14 13/13/13 12/12/12
f 15/15/15 13/13/13 14/14/14
f 16/16/16 15/15/15 14/14/14
f 16/16/16 17/17/17 15/15/15
f 18/18/18 17/17/17 16/16/16
f 19/19/19 17/17/17 18/18/18
f 20/20/20 19/19/19 18/18/18
f 20/20/20 21/21/21 19/19/19
f 22/22/22 21/21/21 20/20/20
f 23/23/23 21/21/21 22/22/22
f 24/24/24 23/23/23 22/22/22
f 24/24/24 25/25/25 23/23/23
f 26/26/26 25/25/25 24/24/24
f 29/29/29 28/28/28 27/27/27
f 30/30/30 27/27/27 28/28/28
f 29/29/29 32/32/32 31/31/31
f 32/32/32 29/29/29 27/27/27
f 27/27/27 30/30/30 33/33/33
f 30/30/30 34/34/34 33/33/33
f 35/35/35 33/33/33 34/34/34
f 32/32/32 27/27/27 36/36/36
f 36/36/36 37/37/37 32/32/32
f 39/39/39 38/38/38 37/37/37
f 37/37/37 36/36/36 39/39/39
f 39/39/39 36/36/36 40/40/40
f 41/41/41 40/40/40 36/36/36
f 42/42/42 36/36/36 27/27/27
f 42/42/42 41/41/41 36/36/36
f 27/27/27 33/33/33 42/42/42
f 41/41/41 42/42/42 43/43/43
f 44/44/44 43/43/43 42/42/42
f 45/45/45 44/44/44 42/42/42
f 45/45/45 42/42/42 33/33/33
f 44/44/44 45/45/45 46/46/46
f 47/47/47 46/46/46 45/45/45
f 33/33/33 35/35/35 48/48/48
f 33/33/33 48/48/48 45/45/45
f 35/35/35 49/49/49 48/48/48
f 50/50/50 48/48/48 49/49/49
f 47/47/47 45/45/45 51/51/51
f 51/51/51 45/45/45 48/48/48
f 47/47/47 51/51/51 52/52/52
f 53/53/53 52/52/52 51/51/51
f 50/50/50 54/54/54 48/48/48
f 48/48/48 54/54/54 51/51/51
f 50/50/50 55/55/55 54/54/54
f 56/56/56 54/54/54 55/55/55
f 53/53/53 51/51/51 57/57/57
f 57/57/57 51/51/51 54/54/54
f 53/53/53 57/57/57 58/58/58
f 59/59/59 58/58/58 57/57/57
f 56/56/56 60/60/60 54/54/54
f 54/54/54 60/60/60 57/57/57
f 56/56/56 61/61/61 60/60/60
f 57/57/57 62/62/62 59/59/59
f 59/59/59 62/62/62 63/63/63
f 62/62/62 57/57/57 60/60/60
f 64/64/64 60/60/60 61/61/61
f 60/60/60 65/65/65 62/62/62
f 60/60/60 64/64/64 65/65/65
f 64/64/64 66/66/66 65/65/65
f 69/69/69 68/68/68 67/67/67
f 67/67/67 70/70/70 69/69/69
f 71/71/71 67/67/67 68/68/68
f 72/72/72 69/69/69 70/70/70
f 68/68/68 73/73/73 71/71/71
f 70/70/70 74/74/74 72/72/72
f 75/75/75 71/71/71 73/73/73
f 76/76/76 72/72/72 74/74/74
f 74/74/74 77/77/77 76/76/76
f 73/73/73 78/78/78 75/75/75
f 79/79/79 75/75/75 78/78/78
f 78/78/78 80/80/80 79/79/79
f 81/81/81 79/79/79 80/80/80
f 80/80/80 82/82/82 81/81/81
f 83/83/83 81/81/81 82/82/82
f 82/82/82 84/84/84 83/83/83
f 85/85/85 83/83/83 84/84/84
f 84/84/84 86/86/86 85/85/85
f 87/87/87 85/85/85 86/86/86
f 86/86/86 88/88/88 87/87/87
f 89/89/89 87/87/87 88/88/88
f 88/88/88 90/90/90 89/89/89
f 91/91/91 89/89/89 90/90/90
f 90/90/90 92/92/92 91/91/91
f 95/95/95 94/94/94 93/93/93
f 96/96/96 93/93/93 94/94/94
f 97/97/97 94/94/94 95/95/95
f 98/98/98 93/93/93 96/96/96
f 95/95/95 99/99/99 97/97/97
f 96/96/96 100/100/100 98/98/98
f 97/97/97 99/99/99 101/101/101
f 102/102/102 101/101/101 99/99/99
f 98/98/98 100/100/100 103/103/103
f 104/104/104 103/103/103 100/100/100
f 103/103/103 104/104/104 105/105/105
f 106/106/106 105/105/105 104/104/104
f 105/105/105 106/106/106 107/107/107
f 108/108/108 107/107/107 106/106/106
f 109/109/109 107/107/107 108/108/108
f 108/108/108 110/110/110 109/109/109
f 109/109/109 110/110/110 111/111/111
f 112/112/112 111/111/111 110/110/110
f 113/113/113 111/111/111 112/112/112
f 112/112/112 114/114/114 113/113/113
f 113/113/113 114/114/114 115/115/115
f 116/116/116 115/115/115 114/114/114
f 117/117/117 115/115/115 116/116/116
f 116/116/116 118/118/118 117/117/117
f 121/121/121 120/120/120 119/119/119
f 120/120/120 122/122/122 119/119/119
f 123/123/123 121/121/121 119/119/119
f 122/122/122 124/124/124 119/119/119
f 125/125/125 123/123/123 119/119/119
f 124/124/124 126/126/126 119/119/119
f 127/127/127 125/125/125 119/119/119
f 126/126/126 128/128/128 119/119/119
f 129/129/129 127/127/127 119/119/119
f 128/128/128 130/130/130 119/119/119
f 131/131/131 129/129/129 119/119/119
f 130/130/130 131/131/131 119/119/119
