# VPXTOOL table OBJ file
# VPXTOOL OBJ file
# numVerts: 8 numFaces: 18
o ApronDecalAmusement
v 798.177978515625 112 1991.6300048828125
v 814.85498046875 112 2009.8499755859375
v 814.85498046875 112 2091.889892578125
v 600.5390014648438 112 1991.6300048828125
v 798.177978515625 112 2110.1201171875
v 600.5390014648438 112 2110.1201171875
v 585.781982421875 112 2091.72998046875
v 585.7830200195313 112 2009.97998046875
vt 0.9211400151252747 0.01353001594543457
vt 0.9929100275039673 0.163129985332489
vt 0.9929100275039673 0.8367199897766113
vt 0.07058999687433243 0.01353001594543457
vt 0.9211400151252747 0.9864699840545654
vt 0.07058999687433243 0.9864699840545654
vt 0.007089999970048666 0.8354300260543823
vt 0.007089999970048666 0.16421997547149658
vn 0 1 -0
vn 0 1 -0
vn 0 1 -0
vn 0 1 -0
vn 0 1 -0
vn 0 1 -0
vn 0 1 -0
vn 0 1 -0
f 3/3/3 2/2/2 1/1/1
f 5/5/5 3/3/3 1/1/1
f 5/5/5 1/1/1 4/4/4
f 6/6/6 5/5/5 4/4/4
f 7/7/7 6/6/6 4/4/4
f 8/8/8 7/7/7 4/4/4
