# VPXTOOL table OBJ file
# VPXTOOL OBJ file
# numVerts: 106 numFaces: 300
o DTMsCartman
v -7.131659984588623 49.58700180053711 -3.7402100563049316
v -10.131699562072754 2.395829916000366 -0.7402169704437256
v -7.131659984588623 2.395829916000366 -3.740220069885254
v 10.131699562072754 2.395829916000366 0.740215003490448
v 10.131699562072754 49.58700180053711 0.7402179837226868
v 10.131699562072754 49.58700180053711 -0.7402129769325256
v 10.131699562072754 2.395829916000366 -0.7402160167694092
v 13.131699562072754 52.58700180053711 0.7402179837226868
v 22.329099655151367 52.58700180053711 0.740218997001648
v 22.329099655151367 52.58700180053711 -0.7402120232582092
v 13.131699562072754 52.58700180053711 -0.7402120232582092
v 25.329099655151367 55.58700180053711 0.740218997001648
v 25.329099655151367 98.55670166015625 0.7402219772338867
v 25.329099655151367 98.55670166015625 -0.7402080297470093
v 25.329099655151367 55.58700180053711 -0.7402120232582092
v 22.329099655151367 101.55699920654297 0.7402229905128479
v -22.329200744628906 101.55699920654297 0.7402210235595703
v -22.329200744628906 101.55699920654297 -0.7402099967002869
v 22.329099655151367 101.55699920654297 -0.7402080297470093
v -25.329200744628906 98.55670166015625 0.7402200102806091
v -25.329200744628906 55.58700180053711 0.7402169704437256
v -25.329200744628906 55.58700180053711 -0.7402139902114868
v -25.329200744628906 98.55670166015625 -0.7402099967002869
v -22.329200744628906 52.58700180053711 0.7402169704437256
v -13.131699562072754 52.58700180053711 0.7402169704437256
v -13.131699562072754 52.58700180053711 -0.7402139902114868
v -22.329200744628906 52.58700180053711 -0.7402139902114868
v -10.131699562072754 49.58700180053711 0.7402169704437256
v -10.131699562072754 2.395829916000366 0.7402139902114868
v -10.131699562072754 2.395829916000366 -0.7402169704437256
v -10.131699562072754 49.58700180053711 -0.7402139902114868
v -7.131659984588623 -0.604174017906189 0.7402139902114868
v 7.131659984588623 -0.604174017906189 0.740215003490448
v 7.131659984588623 -0.604174017906189 -0.7402160167694092
v -7.131659984588623 -0.604174017906189 -0.7402169704437256
v 7.131659984588623 49.58700180053711 3.740220069885254
v -7.131760120391846 49.58700180053711 3.740220069885254
v -13.131699562072754 55.58700180053711 3.740220069885254
v -7.131659984588623 2.395829916000366 3.7402100563049316
v 7.131659984588623 2.395829916000366 3.7402100563049316
v 13.131699562072754 55.58689880371094 3.740220069885254
v -13.131699562072754 55.58700180053711 3.740220069885254
v -22.329200744628906 55.58700180053711 3.740220069885254
v -22.329200744628906 98.55670166015625 3.740220069885254
v 22.329099655151367 98.55670166015625 3.740220069885254
v 13.131699562072754 55.58689880371094 3.740220069885254
v 22.329099655151367 55.58700180053711 3.740220069885254
v -7.131659984588623 49.58700180053711 -3.7402100563049316
v 7.131760120391846 49.58700180053711 -3.7402100563049316
v 13.131699562072754 55.58700180053711 -3.7402100563049316
v 7.131659984588623 2.395829916000366 -3.740220069885254
v -7.131659984588623 2.395829916000366 -3.740220069885254
v -13.131699562072754 55.58689880371094 -3.7402100563049316
v 22.329099655151367 55.58700180053711 -3.7402100563049316
v 22.329099655151367 98.55670166015625 -3.7402100563049316
v -22.329200744628906 98.55670166015625 -3.7402100563049316
v -22.329200744628906 55.58700180053711 -3.7402100563049316
v 10.131699562072754 2.395829916000366 0.740215003490448
v 7.131659984588623 2.395829916000366 3.7402100563049316
v 7.131659984588623 49.58700180053711 3.740220069885254
v 10.131699562072754 49.58700180053711 0.7402179837226868
v 13.131699562072754 52.58700180053711 0.7402179837226868
v 13.131699562072754 52.58700180053711 -0.7402120232582092
v 10.131699562072754 49.58700180053711 -0.7402129769325256
v 13.131699562072754 55.58700180053711 -3.7402100563049316
v 7.131760120391846 49.58700180053711 -3.7402100563049316
v 7.131659984588623 2.395829916000366 -3.740220069885254
v 10.131699562072754 2.395829916000366 -0.7402160167694092
v 7.131659984588623 -0.604174017906189 0.740215003490448
v 7.131659984588623 -0.604174017906189 -0.7402160167694092
v -7.131659984588623 -0.604174017906189 0.7402139902114868
v -7.131659984588623 2.395829916000366 3.7402100563049316
v -10.131699562072754 2.395829916000366 0.7402139902114868
v -7.131659984588623 -0.604174017906189 -0.7402169704437256
v 13.131699562072754 55.58689880371094 3.740220069885254
v 22.329099655151367 55.58700180053711 3.740220069885254
v 22.329099655151367 52.58700180053711 0.740218997001648
v 25.329099655151367 55.58700180053711 0.740218997001648
v 25.329099655151367 55.58700180053711 -0.7402120232582092
v 22.329099655151367 52.58700180053711 -0.7402120232582092
v 22.329099655151367 55.58700180053711 -3.7402100563049316
v 22.329099655151367 98.55670166015625 3.740220069885254
v 25.329099655151367 98.55670166015625 0.7402219772338867
v 22.329099655151367 101.55699920654297 0.7402229905128479
v 22.329099655151367 101.55699920654297 -0.7402080297470093
v 25.329099655151367 98.55670166015625 -0.7402080297470093
v 22.329099655151367 98.55670166015625 -3.7402100563049316
v -22.329200744628906 98.55670166015625 3.740220069885254
v -22.329200744628906 101.55699920654297 0.7402210235595703
v -25.329200744628906 98.55670166015625 0.7402200102806091
v -25.329200744628906 98.55670166015625 -0.7402099967002869
v -22.329200744628906 101.55699920654297 -0.7402099967002869
v -22.329200744628906 98.55670166015625 -3.7402100563049316
v -25.329200744628906 55.58700180053711 -0.7402139902114868
v -22.329200744628906 55.58700180053711 -3.7402100563049316
v -22.329200744628906 52.58700180053711 -0.7402139902114868
v -25.329200744628906 55.58700180053711 0.7402169704437256
v -22.329200744628906 52.58700180053711 0.7402169704437256
v -22.329200744628906 55.58700180053711 3.740220069885254
v -13.131699562072754 55.58700180053711 3.740220069885254
v -13.131699562072754 52.58700180053711 0.7402169704437256
v -10.131699562072754 49.58700180053711 0.7402169704437256
v -10.131699562072754 49.58700180053711 -0.7402139902114868
v -13.131699562072754 52.58700180053711 -0.7402139902114868
v -7.131760120391846 49.58700180053711 3.740220069885254
v -13.131699562072754 55.58689880371094 -3.7402100563049316
vt 0 0
vt 0 0
vt 0 0
vt 0 0
vt 0 0
vt 0 0
vt 0 0
vt 0 0
vt 0 0
vt 0 0
vt 0 0
vt 0 0
vt 0 0
vt 0 0
vt 0 0
vt 0 0
vt 0 0
vt 0 0
vt 0 0
vt 0 0
vt 0 0
vt 0 0
vt 0 0
vt 0 0
vt 0 0
vt 0 0
vt 0 0
vt 0 0
vt 0 0
vt 0 0
vt 0 0
vt 0 0
vt 0 0
vt 0 0
vt 0 0
vt 0 0
vt 0 0
vt 0 0
vt 0 0
vt 0 0
vt 0 0
vt 0.21574999392032623 0.9655900001525879
vt 0.01534000039100647 0.9654899835586548
vt 0.01582000032067299 0.029160022735595703
vt 0.9889400005340576 0.02965998649597168
vt 0.7880499958992004 0.9658799767494202
vt 0.9884600043296814 0.9659799933433533
vt 0 0
vt 0 0
vt 0 0
vt 0 0
vt 0 0
vt 0 0
vt 0 0
vt 0 0
vt 0 0
vt 0 0
vt 0 0
vt 0 0
vt 0 0
vt 0 0
vt 0 0
vt 0 0
vt 0 0
vt 0 0
vt 0 0
vt 0 0
vt 0 0
vt 0 0
vt 0 0
vt 0 0
vt 0 0
vt 0 0
vt 0 0
vt 0 0
vt 0 0
vt 0 0
vt 0 0
vt 0 0
vt 0 0
vt 0 0
vt 0 0
vt 0 0
vt 0 0
vt 0 0
vt 0 0
vt 0 0
vt 0 0
vt 0 0
vt 0 0
vt 0 0
vt 0 0
vt 0 0
vt 0 0
vt 0 0
vt 0 0
vt 0 0
vt 0 0
vt 0 0
vt 0 0
vt 0 0
vt 0 0
vt 0 0
vt 0 0
vt 0 0
vt 0 0
vn -0.6738860011100769 -0.30291101336479187 -0.6738860011100769
vn -0.7514010071754456 -0.3576369881629944 -0.55451899766922
vn -0.3576369881629944 -0.55451899766922 -0.7514010071754456
vn 1 0.00000003331999920419548 0.0000000000000003082600122799879
vn 1 0.00000003331999920419548 0.0000000000000003082600122799879
vn 1 0.00000003331999920419548 0.0000000000000003082600122799879
vn 1 0.00000003331999920419548 0.0000000000000003082600122799879
vn 0.00000003331999920419548 -1 -0.000000005576080042146714
vn 0.00000003331999920419548 -1 -0.000000005576080042146714
vn 0.00000003331999920419548 -1 -0.000000005576080042146714
vn 0.00000003331999920419548 -1 -0.000000005576080042146714
vn 1 0.00000003331999920419548 0.0000000000000003082600122799879
vn 1 0.00000003331999920419548 0.0000000000000003082600122799879
vn 1 0.00000003331999920419548 0.0000000000000003082600122799879
vn 1 0.00000003331999920419548 0.0000000000000003082600122799879
vn -0.00000003331999920419548 1 0.000000005576080042146714
vn -0.00000003331999920419548 1 0.000000005576080042146714
vn -0.00000003331999920419548 1 0.000000005576080042146714
vn -0.00000003331999920419548 1 0.000000005576080042146714
vn -1 -0.00000003331999920419548 -0.0000000000000003082600122799879
vn -1 -0.00000003331999920419548 -0.0000000000000003082600122799879
vn -1 -0.00000003331999920419548 -0.0000000000000003082600122799879
vn -1 -0.00000003331999920419548 -0.0000000000000003082600122799879
vn 0.00000003331999920419548 -1 -0.000000005576080042146714
vn 0.00000003331999920419548 -1 -0.000000005576080042146714
vn 0.00000003331999920419548 -1 -0.000000005576080042146714
vn 0.00000003331999920419548 -1 -0.000000005576080042146714
vn -1 -0.00000003331999920419548 -0.0000000000000003082600122799879
vn -1 -0.00000003331999920419548 -0.0000000000000003082600122799879
vn -1 -0.00000003331999920419548 -0.0000000000000003082600122799879
vn -1 -0.00000003331999920419548 -0.0000000000000003082600122799879
vn 0.00000003331999920419548 -1 -0.000000005576080042146714
vn 0.00000003331999920419548 -1 -0.000000005576080042146714
vn 0.00000003331999920419548 -1 -0.000000005576080042146714
vn 0.00000003331999920419548 -1 -0.000000005576080042146714
vn -0.000000000000000122465002895872 -0.000000005576080042146714 1
vn -0.000000000000000122465002895872 -0.000000005576080042146714 1
vn -0.000000000000000122465002895872 -0.000000005576080042146714 1
vn -0.000000000000000122465002895872 -0.000000005576080042146714 1
vn -0.000000000000000122465002895872 -0.000000005576080042146714 1
vn -0.000000000000000122465002895872 -0.000000005576080042146714 1
vn -0.000000000000000122465002895872 -0.000000005576080042146714 1
vn -0.000000000000000122465002895872 -0.000000005576080042146714 1
vn -0.000000000000000122465002895872 -0.000000005576080042146714 1
vn -0.000000000000000122465002895872 -0.000000005576080042146714 1
vn -0.000000000000000122465002895872 -0.000000005576080042146714 1
vn -0.000000000000000122465002895872 -0.000000005576080042146714 1
vn 0.000000000000000122465002895872 0.000000005576080042146714 -1
vn 0.000000000000000122465002895872 0.000000005576080042146714 -1
vn 0.000000000000000122465002895872 0.000000005576080042146714 -1
vn 0.000000000000000122465002895872 0.000000005576080042146714 -1
vn 0.000000000000000122465002895872 0.000000005576080042146714 -1
vn 0.000000000000000122465002895872 0.000000005576080042146714 -1
vn 0.000000000000000122465002895872 0.000000005576080042146714 -1
vn 0.000000000000000122465002895872 0.000000005576080042146714 -1
vn 0.000000000000000122465002895872 0.000000005576080042146714 -1
vn 0.000000000000000122465002895872 0.000000005576080042146714 -1
vn 0.7514010071754456 -0.3576369881629944 0.55451899766922
vn 0.3576369881629944 -0.55451899766922 0.7514010071754456
vn 0.6738860011100769 -0.30291101336479187 0.6738860011100769
vn 0.7514010071754456 -0.55451899766922 0.3576369881629944
vn 0.4082300066947937 -0.7183629870414734 0.5632960200309753
vn 0.55451899766922 -0.7514010071754456 -0.3576369881629944
vn 0.7183629870414734 -0.4082300066947937 -0.5632960200309753
vn 0.30291101336479187 -0.6738860011100769 -0.6738860011100769
vn 0.6738920211791992 -0.30288299918174744 -0.6738920211791992
vn 0.55451899766922 -0.3576369881629944 -0.7514010071754456
vn 0.7514010071754456 -0.55451899766922 -0.3576369881629944
vn 0.55451899766922 -0.7514010071754456 0.3576369881629944
vn 0.3576369881629944 -0.7514010071754456 -0.55451899766922
vn -0.3576369881629944 -0.7514010071754456 0.55451899766922
vn -0.55451899766922 -0.3576369881629944 0.7514010071754456
vn -0.7514010071754456 -0.55451899766922 0.3576369881629944
vn -0.55451899766922 -0.7514010071754456 -0.3576369881629944
vn 0.30291101336479187 -0.6738860011100769 0.6738860011100769
vn 0.3576369881629944 -0.55451899766922 0.7514010071754456
vn 0.55451899766922 -0.7514010071754456 0.3576369881629944
vn 0.7514010071754456 -0.3576369881629944 0.55451899766922
vn 0.7514010071754456 -0.55451899766922 -0.3576369881629944
vn 0.3576369881629944 -0.7514010071754456 -0.55451899766922
vn 0.55451899766922 -0.3576369881629944 -0.7514010071754456
vn 0.55451899766922 0.3576369881629944 0.7514010071754456
vn 0.7514010071754456 0.55451899766922 0.3576369881629944
vn 0.3576369881629944 0.7514010071754456 0.55451899766922
vn 0.55451899766922 0.7514010071754456 -0.3576369881629944
vn 0.7514010071754456 0.3576369881629944 -0.55451899766922
vn 0.3576369881629944 0.55451899766922 -0.7514010071754456
vn -0.3576369881629944 0.55451899766922 0.7514010071754456
vn -0.55451899766922 0.7514010071754456 0.3576369881629944
vn -0.7514010071754456 0.3576369881629944 0.55451899766922
vn -0.7514010071754456 0.55451899766922 -0.3576369881629944
vn -0.3576369881629944 0.7514010071754456 -0.55451899766922
vn -0.55451899766922 0.3576369881629944 -0.7514010071754456
vn -0.7514010071754456 -0.3576369881629944 -0.55451899766922
vn -0.3576369881629944 -0.55451899766922 -0.7514010071754456
vn -0.55451899766922 -0.7514010071754456 -0.3576369881629944
vn -0.7514010071754456 -0.55451899766922 0.3576369881629944
vn -0.3576369881629944 -0.7514010071754456 0.55451899766922
vn -0.55451899766922 -0.3576369881629944 0.7514010071754456
vn -0.30291101336479187 -0.6738860011100769 0.6738860011100769
vn -0.55451899766922 -0.7514010071754456 0.3576369881629944
vn -0.7183629870414734 -0.4082300066947937 0.5632960200309753
vn -0.7514010071754456 -0.55451899766922 -0.3576369881629944
vn -0.4082300066947937 -0.7183629870414734 -0.5632960200309753
vn -0.6738920211791992 -0.30288299918174744 0.6738920211791992
vn -0.30291101336479187 -0.6738860011100769 -0.6738860011100769
f 6/6/6 5/5/5 4/4/4
f 7/7/7 6/6/6 4/4/4
f 3/3/3 2/2/2 1/1/1
f 2/2/2 103/103/103 1/1/1
f 2/2/2 3/3/3 74/74/74
f 2/2/2 74/74/74 73/73/73
f 74/74/74 3/3/3 70/70/70
f 74/74/74 71/71/71 73/73/73
f 3/3/3 67/67/67 70/70/70
f 73/73/73 71/71/71 72/72/72
f 73/73/73 72/72/72 102/102/102
f 72/72/72 71/71/71 59/59/59
f 72/72/72 105/105/105 102/102/102
f 71/71/71 69/69/69 59/59/59
f 102/102/102 105/105/105 100/100/100
f 69/69/69 58/58/58 59/59/59
f 60/60/60 59/59/59 58/58/58
f 70/70/70 68/68/68 69/69/69
f 68/68/68 58/58/58 69/69/69
f 67/67/67 68/68/68 70/70/70
f 61/61/61 60/60/60 58/58/58
f 64/64/64 68/68/68 67/67/67
f 66/66/66 64/64/64 67/67/67
f 66/66/66 65/65/65 64/64/64
f 61/61/61 62/62/62 60/60/60
f 62/62/62 75/75/75 60/60/60
f 64/64/64 63/63/63 61/61/61
f 63/63/63 62/62/62 61/61/61
f 65/65/65 63/63/63 64/64/64
f 76/76/76 75/75/75 62/62/62
f 80/80/80 63/63/63 65/65/65
f 77/77/77 76/76/76 62/62/62
f 81/81/81 80/80/80 65/65/65
f 77/77/77 78/78/78 76/76/76
f 82/82/82 76/76/76 78/78/78
f 80/80/80 79/79/79 77/77/77
f 79/79/79 78/78/78 77/77/77
f 81/81/81 79/79/79 80/80/80
f 83/83/83 82/82/82 78/78/78
f 86/86/86 79/79/79 81/81/81
f 87/87/87 86/86/86 81/81/81
f 83/83/83 84/84/84 82/82/82
f 88/88/88 82/82/82 84/84/84
f 86/86/86 85/85/85 83/83/83
f 85/85/85 84/84/84 83/83/83
f 87/87/87 85/85/85 86/86/86
f 89/89/89 88/88/88 84/84/84
f 92/92/92 85/85/85 87/87/87
f 93/93/93 92/92/92 87/87/87
f 89/89/89 90/90/90 88/88/88
f 99/99/99 88/88/88 90/90/90
f 92/92/92 91/91/91 89/89/89
f 91/91/91 90/90/90 89/89/89
f 93/93/93 91/91/91 92/92/92
f 97/97/97 99/99/99 90/90/90
f 94/94/94 91/91/91 93/93/93
f 95/95/95 94/94/94 93/93/93
f 97/97/97 98/98/98 99/99/99
f 100/100/100 99/99/99 98/98/98
f 94/94/94 96/96/96 97/97/97
f 96/96/96 98/98/98 97/97/97
f 95/95/95 96/96/96 94/94/94
f 101/101/101 100/100/100 98/98/98
f 101/101/101 102/102/102 100/100/100
f 103/103/103 102/102/102 101/101/101
f 104/104/104 96/96/96 95/95/95
f 104/104/104 103/103/103 101/101/101
f 106/106/106 104/104/104 95/95/95
f 1/1/1 103/103/103 104/104/104
f 106/106/106 1/1/1 104/104/104
f 10/10/10 9/9/9 8/8/8
f 11/11/11 10/10/10 8/8/8
f 14/14/14 13/13/13 12/12/12
f 15/15/15 14/14/14 12/12/12
f 18/18/18 17/17/17 16/16/16
f 19/19/19 18/18/18 16/16/16
f 22/22/22 21/21/21 20/20/20
f 23/23/23 22/22/22 20/20/20
f 26/26/26 25/25/25 24/24/24
f 27/27/27 26/26/26 24/24/24
f 30/30/30 29/29/29 28/28/28
f 31/31/31 30/30/30 28/28/28
f 34/34/34 33/33/33 32/32/32
f 35/35/35 34/34/34 32/32/32
f 38/38/38 37/37/37 36/36/36
f 41/41/41 38/38/38 36/36/36
f 37/37/37 39/39/39 36/36/36
f 39/39/39 40/40/40 36/36/36
f 44/44/44 43/43/43 42/42/42
f 45/45/45 44/44/44 42/42/42
f 46/46/46 45/45/45 42/42/42
f 46/46/46 47/47/47 45/45/45
f 50/50/50 49/49/49 48/48/48
f 48/48/48 49/49/49 51/51/51
f 52/52/52 48/48/48 51/51/51
f 53/53/53 50/50/50 48/48/48
f 55/55/55 54/54/54 50/50/50
f 56/56/56 55/55/55 50/50/50
f 53/53/53 56/56/56 50/50/50
f 53/53/53 57/57/57 56/56/56
