# VPXTOOL table OBJ file
# VPXTOOL OBJ file
# numVerts: 10 numFaces: 24
o DecalTodaysHotLunch
v -52.139400482177734 22.5 16.80030059814453
v -33.524200439453125 22.5 13.090900421142578
v -33.524200439453125 -22.5 13.090900421142578
v 1.7083499431610107 22.5 4.278629779815674
v 1.7083499431610107 -22.5 4.278629779815674
v 35.232601165771484 22.5 -8.812310218811035
v 35.232601165771484 -22.5 -8.812310218811035
v 52.139400482177734 22.5 -16.80030059814453
v 52.139400482177734 -22.5 -16.80030059814453
v -52.139400482177734 -22.5 16.80030059814453
vt 0.006479999981820583 0.014769971370697021
vt 0.18267999589443207 0.014769971370697021
vt 0.18267999589443207 0.985230028629303
vt 0.5161700248718262 0.014769971370697021
vt 0.5161700248718262 0.985230028629303
vt 0.8334900140762329 0.014769971370697021
vt 0.8334900140762329 0.985230028629303
vt 0.9935200214385986 0.014769971370697021
vt 0.9935200214385986 0.985230028629303
vt 0.006479999981820583 0.985230028629303
vn 0.19542400538921356 0 0.9807189702987671
vn 0.22696299850940704 0 0.9739030003547668
vn 0.21121899783611298 0 0.9774389863014221
vn 0.32395899295806885 0 0.9460710287094116
vn 0.2835189998149872 0 0.9589660167694092
vn 0.4062570035457611 0 0.9137589931488037
vn 0.38509601354599 0 0.9228760004043579
vn 0.42719000577926636 0 0.9041619896888733
vn 0.42719000577926636 0 0.9041619896888733
vn 0.19542400538921356 0 0.9807189702987671
f 9/9/9 8/8/8 6/6/6
f 7/7/7 9/9/9 6/6/6
f 7/7/7 6/6/6 4/4/4
f 5/5/5 7/7/7 4/4/4
f 5/5/5 4/4/4 2/2/2
f 3/3/3 5/5/5 2/2/2
f 3/3/3 2/2/2 1/1/1
f 10/10/10 3/3/3 1/1/1
